<svg width="16" height="16" viewBox="0 0 16 16" fill="none" xmlns="http://www.w3.org/2000/svg">
<g id="Instagram 1">
<g id="Group">
<path id="Vector" d="M10.6667 4.66667C10.6667 4.48986 10.7369 4.32029 10.8619 4.19526C10.987 4.07024 11.1565 4 11.3334 4C11.5102 4 11.6797 4.07024 11.8048 4.19526C11.9298 4.32029 12 4.48986 12 4.66667C12 4.84348 11.9298 5.01305 11.8048 5.13807C11.6797 5.2631 11.5102 5.33333 11.3334 5.33333C11.1565 5.33333 10.987 5.2631 10.8619 5.13807C10.7369 5.01305 10.6667 4.84348 10.6667 4.66667Z" fill="#636270"/>
<path id="Vector_2" fill-rule="evenodd" clip-rule="evenodd" d="M8.00004 4.8335C7.16019 4.8335 6.35473 5.16713 5.76087 5.76099C5.167 6.35486 4.83337 7.16031 4.83337 8.00016C4.83337 8.84001 5.167 9.64547 5.76087 10.2393C6.35473 10.8332 7.16019 11.1668 8.00004 11.1668C8.83989 11.1668 9.64535 10.8332 10.2392 10.2393C10.8331 9.64547 11.1667 8.84001 11.1667 8.00016C11.1667 7.16031 10.8331 6.35486 10.2392 5.76099C9.64535 5.16713 8.83989 4.8335 8.00004 4.8335ZM5.83337 8.00016C5.83337 7.42553 6.06165 6.87443 6.46798 6.4681C6.87431 6.06177 7.42541 5.8335 8.00004 5.8335C8.57468 5.8335 9.12578 6.06177 9.53211 6.4681C9.93843 6.87443 10.1667 7.42553 10.1667 8.00016C10.1667 8.5748 9.93843 9.1259 9.53211 9.53223C9.12578 9.93856 8.57468 10.1668 8.00004 10.1668C7.42541 10.1668 6.87431 9.93856 6.46798 9.53223C6.06165 9.1259 5.83337 8.5748 5.83337 8.00016Z" fill="#636270"/>
<path id="Vector_3" fill-rule="evenodd" clip-rule="evenodd" d="M11.5054 1.88877C9.1756 1.6305 6.82444 1.6305 4.49468 1.88877C3.15335 2.03877 2.07002 3.09544 1.91268 4.44344C1.63628 6.80649 1.63628 9.19371 1.91268 11.5568C2.07002 12.9048 3.15268 13.9614 4.49468 14.1114C6.80535 14.3694 9.19468 14.3694 11.5054 14.1114C12.8467 13.9614 13.93 12.9048 14.0874 11.5568C14.3638 9.19372 14.3638 6.80649 14.0874 4.44344C13.93 3.09544 12.8474 2.03877 11.5054 1.88877ZM4.60535 2.8821C6.86155 2.63202 9.13848 2.63202 11.3947 2.8821C12.2813 2.9821 12.9914 3.68144 13.0947 4.5601C13.362 6.84565 13.362 9.15456 13.0947 11.4401C12.9914 12.3188 12.2813 13.0188 11.3947 13.1174C9.13848 13.3675 6.86155 13.3675 4.60535 13.1174C3.71868 13.0188 3.00868 12.3188 2.90535 11.4401C2.63805 9.15456 2.63805 6.84565 2.90535 4.5601C3.00868 3.68144 3.71868 2.98144 4.60535 2.88277V2.8821Z" fill="#636270"/>
</g>
</g>
</svg>
